<?xml version="1.0" encoding="UTF-8"?> <!-- Generator: Adobe Illustrator 21.0.0, SVG Export Plug-In . SVG Version: 6.00 Build 0) --> <svg xmlns="http://www.w3.org/2000/svg" xmlns:xlink="http://www.w3.org/1999/xlink" id="Layer_1" x="0px" y="0px" viewBox="0 0 56.007 55.872" style="enable-background:new 0 0 56.007 55.872;" xml:space="preserve"> <path style="fill:#00aff0;" d="M54.025,32.6c-0.018,0.098-0.03,0.198-0.049,0.296l-0.096-0.564C53.932,32.42,53.976,32.511,54.025,32.6 c0.289-1.573,0.441-3.184,0.441-4.794c0-3.57-0.699-7.034-2.08-10.294c-1.332-3.15-3.238-5.978-5.669-8.407 C44.29,6.677,41.46,4.77,38.312,3.438c-3.26-1.379-6.723-2.078-10.293-2.078c-1.683,0-3.368,0.158-5.008,0.473 c-0.004,0.001-0.008,0.001-0.012,0.002c0.092,0.049,0.185,0.092,0.276,0.143l-0.556-0.087c0.093-0.018,0.187-0.037,0.28-0.056 C20.749,0.639,18.218,0,15.657,0C11.475,0,7.543,1.628,4.586,4.586C1.63,7.543,0,11.475,0,15.657c0,2.662,0.685,5.278,1.97,7.591 c0.017-0.096,0.028-0.192,0.047-0.288l0.096,0.554c-0.05-0.087-0.093-0.177-0.143-0.266c-0.261,1.498-0.398,3.029-0.398,4.558 c0,3.571,0.699,7.034,2.08,10.295c1.33,3.15,3.237,5.977,5.665,8.406c2.43,2.428,5.257,4.337,8.408,5.666 c3.26,1.382,6.724,2.082,10.294,2.082c1.554,0,3.111-0.142,4.632-0.412c-0.089-0.05-0.179-0.095-0.27-0.147l0.565,0.099 c-0.098,0.019-0.196,0.03-0.295,0.048c2.342,1.325,4.994,2.029,7.702,2.029c4.181,0,8.111-1.626,11.068-4.585 c2.958-2.955,4.586-6.888,4.586-11.07C56.007,37.547,55.319,34.921,54.025,32.6L54.025,32.6z M28.125,44.003 c-9.396,0-13.599-4.619-13.599-8.081c0-1.776,1.311-3.02,3.118-3.02c4.021,0,2.979,5.773,10.481,5.773 c3.841,0,5.961-2.085,5.961-4.219c0-1.283-0.633-2.706-3.162-3.33l-8.357-2.086c-6.73-1.688-7.952-5.326-7.952-8.746 c0-7.101,6.686-9.767,12.965-9.767c5.784,0,12.602,3.197,12.602,7.457c0,1.825-1.581,2.887-3.386,2.887 c-3.432,0-2.8-4.75-9.712-4.75c-3.43,0-5.33,1.553-5.33,3.776c0,2.218,2.709,2.927,5.061,3.463l6.186,1.373 c6.775,1.51,8.493,5.465,8.493,9.192C41.494,39.694,37.064,44.003,28.125,44.003z M32.381,53.695c0.09,0.052,0.181,0.098,0.27,0.147 c0.099-0.018,0.198-0.029,0.295-0.048L32.381,53.695z M53.976,32.896c0.019-0.099,0.031-0.198,0.049-0.296 c-0.049-0.089-0.092-0.18-0.145-0.268L53.976,32.896z M2.017,22.96c-0.019,0.096-0.03,0.192-0.047,0.288 c0.05,0.089,0.093,0.179,0.143,0.266L2.017,22.96z M23.275,1.978c-0.09-0.051-0.184-0.094-0.276-0.143 c-0.093,0.019-0.187,0.038-0.28,0.056L23.275,1.978z"></path> </svg> 