<?xml version="1.0" encoding="UTF-8"?> <!-- Generator: Adobe Illustrator 21.0.0, SVG Export Plug-In . SVG Version: 6.00 Build 0) --> <svg xmlns="http://www.w3.org/2000/svg" xmlns:xlink="http://www.w3.org/1999/xlink" id="Layer_1" x="0px" y="0px" viewBox="0 0 98.624 98.624" style="enable-background:new 0 0 98.624 98.624;" xml:space="preserve"> <path style="fill:#59267c;" d="M49.312,0C22.078,0,0,22.078,0,49.312s22.078,49.312,49.312,49.312s49.312-22.078,49.312-49.312S76.546,0,49.312,0z M47.644,25.695c0.364-0.007,0.745,0.049,1.072,0.048c0.133-0.001,0.256-0.011,0.363-0.038 c11.776,0.428,22.052,11.133,21.838,22.909c0,1.07,0.428,2.783-1.285,2.783s-1.285-1.713-1.285-2.997 c-0.187-1.552-0.442-3.001-0.767-4.351c-0.325-1.35-0.722-2.602-1.193-3.761c-0.708-1.739-1.584-3.269-2.645-4.608 c-3.181-4.018-8.013-6.321-14.878-7.405c-1.07-0.214-2.569,0-2.569-1.285C46.295,25.878,46.936,25.694,47.644,25.695z M63.851,49.042c-1.927,0.214-1.499-1.499-1.713-2.569c-1.285-7.494-3.854-10.277-11.561-11.99c-1.071-0.214-2.783,0-2.569-1.713 s1.927-1.07,2.997-0.856c7.708,0.856,13.917,7.279,13.917,14.559C64.707,47.329,65.35,48.828,63.851,49.042z M59.141,45.188 c0,0.856,0,1.927-1.285,2.141c-0.856,0-1.285-0.642-1.499-1.499c-0.214-3.211-1.927-4.924-5.138-5.353 c-0.856-0.214-1.927-0.428-1.499-1.713c0.214-0.856,1.07-0.856,1.927-0.856C55.287,37.695,59.141,41.549,59.141,45.188z M71.13,68.74c-1.285,3.64-5.781,7.279-9.635,7.279c-0.428-0.214-1.499-0.214-2.569-0.642c-16.7-7.279-29.118-19.055-35.969-36.183 c-2.355-5.567,0.214-10.491,5.995-12.418c1.07-0.428,2.141-0.428,3.211,0c2.569,0.856,8.778,9.635,8.992,12.204 c0.214,2.141-1.285,3.211-2.569,4.068c-2.569,1.713-2.569,4.068-1.499,6.423c2.569,5.567,6.851,9.206,12.204,11.776 c1.927,0.856,3.854,0.856,5.138-1.285c2.355-3.64,5.352-3.64,8.564-1.285c1.499,1.07,3.211,2.141,4.71,3.426 C69.846,63.815,72.415,65.314,71.13,68.74z"></path> </svg> 