<?xml version="1.0" encoding="UTF-8"?> <!-- Generator: Adobe Illustrator 21.0.0, SVG Export Plug-In . SVG Version: 6.00 Build 0) --> <svg xmlns="http://www.w3.org/2000/svg" xmlns:xlink="http://www.w3.org/1999/xlink" x="0px" y="0px" viewBox="0 0 98.624 98.624" style="enable-background:new 0 0 98.624 98.624;" xml:space="preserve"> <g id="Layer_18"> <g> <path style="fill:#25d366;" d="M51.32,20.882c-13.74,0-24.914,11.173-24.919,24.907c-0.002,4.707,1.315,9.29,3.808,13.256l0.592,0.942l-2.516,9.192 l9.427-2.473l0.91,0.54c3.824,2.27,8.208,3.47,12.678,3.472h0.01c13.729,0,24.903-11.174,24.909-24.909 c0.003-6.656-2.586-12.914-7.289-17.622C64.227,23.478,57.973,20.884,51.32,20.882z M65.972,56.498 c-0.624,1.749-3.616,3.346-5.054,3.56c-1.29,0.193-2.923,0.273-4.716-0.297c-1.087-0.345-2.482-0.806-4.269-1.577 C44.42,54.941,39.514,47.377,39.14,46.878c-0.374-0.5-3.058-4.06-3.058-7.746c0-3.686,1.934-5.497,2.621-6.247 c0.686-0.75,1.498-0.937,1.997-0.937s0.999,0.005,1.435,0.026c0.46,0.023,1.077-0.174,1.685,1.285 c0.624,1.5,2.122,5.185,2.309,5.56c0.187,0.375,0.312,0.812,0.062,1.312c-0.25,0.499-0.374,0.812-0.749,1.249 s-0.786,0.976-1.123,1.312c-0.375,0.373-0.765,0.779-0.328,1.528c0.437,0.75,1.94,3.202,4.166,5.187 c2.86,2.551,5.273,3.342,6.022,3.717c0.749,0.375,1.186,0.312,1.622-0.187c0.437-0.5,1.872-2.187,2.371-2.936 c0.499-0.749,0.998-0.625,1.685-0.375c0.686,0.25,4.368,2.061,5.117,2.436c0.749,0.375,1.248,0.562,1.435,0.875 C66.596,53.249,66.596,54.749,65.972,56.498z"></path> <path style="fill:#25d366;" d="M49.312,0C22.078,0,0,22.078,0,49.312s22.078,49.312,49.312,49.312s49.312-22.078,49.312-49.312S76.546,0,49.312,0z M51.31,75.779C51.309,75.779,51.311,75.779,51.31,75.779h-0.012c-5.016-0.002-9.944-1.26-14.321-3.648L21.09,76.299l4.252-15.53 c-2.623-4.545-4.003-9.701-4-14.982C21.347,29.263,34.792,15.82,51.31,15.82c8.017,0.003,15.542,3.124,21.2,8.789 c5.658,5.664,8.773,13.194,8.769,21.202C81.272,62.335,67.827,75.779,51.31,75.779z"></path> </g> </g> <g id="Layer_1"> </g> </svg> 